<?xml version="1.0" encoding="UTF-8" standalone="no"?>
<!-- Created with Inkscape (http://www.inkscape.org/) -->

<svg
   width="1280"
   height="640"
   viewBox="0 0 1280 640"
   version="1.1"
   id="svg5"
   inkscape:version="1.1.1 (3bf5ae0d25, 2021-09-20, custom)"
   inkscape:export-xdpi="9.6000004"
   inkscape:export-ydpi="9.6000004"
   sodipodi:docname="logo.svg"
   xmlns:inkscape="http://www.inkscape.org/namespaces/inkscape"
   xmlns:sodipodi="http://sodipodi.sourceforge.net/DTD/sodipodi-0.dtd"
   xmlns="http://www.w3.org/2000/svg"
   xmlns:svg="http://www.w3.org/2000/svg">
  <sodipodi:namedview
     id="namedview7"
     pagecolor="#505050"
     bordercolor="#ffffff"
     borderopacity="1"
     inkscape:pageshadow="0"
     inkscape:pageopacity="0"
     inkscape:pagecheckerboard="1"
     inkscape:document-units="px"
     showgrid="false"
     units="px"
     inkscape:zoom="0.49804688"
     inkscape:cx="89.34902"
     inkscape:cy="177.69412"
     inkscape:window-width="1920"
     inkscape:window-height="1017"
     inkscape:window-x="0"
     inkscape:window-y="0"
     inkscape:window-maximized="1"
     inkscape:current-layer="layer1" />
  <defs
     id="defs2">
    <rect
       x="8.9998198"
       y="2.591563"
       width="118.75415"
       height="61.449467"
       id="rect5685" />
    <rect
       x="8.9998198"
       y="2.591563"
       width="118.75415"
       height="61.449467"
       id="rect47933" />
    <rect
       x="8.9998198"
       y="2.591563"
       width="118.75415"
       height="61.449467"
       id="rect51273" />
    <rect
       x="8.9998198"
       y="2.591563"
       width="118.75415"
       height="61.449467"
       id="rect30067" />
    <rect
       x="8.9998198"
       y="2.591563"
       width="118.75415"
       height="61.449467"
       id="rect30073" />
    <rect
       x="8.9998198"
       y="2.591563"
       width="118.75415"
       height="61.449467"
       id="rect8348" />
  </defs>
  <g
     inkscape:label="Layer 1"
     inkscape:groupmode="layer"
     id="layer1">
    <path
       id="path8589"
       style="font-style:normal;font-weight:normal;font-size:53.3333px;line-height:1.25;font-family:sans-serif;letter-spacing:0px;word-spacing:0px;white-space:pre;shape-inside:url(#rect8348);fill:#580d36;fill-opacity:1;stroke:none;stroke-width:11.8597"
       d="m 1070.7363,57.880859 c -13.9406,0.151908 -27.928,1.233897 -41.5588,4.274794 -29.1142,6.241067 -56.8805,19.671114 -78.9661,39.764597 -11.90253,10.8823 -22.04592,23.65106 -30.20378,37.55153 -11.70631,20.1822 -18.60852,42.7896 -22.83848,65.6336 -1.76726,9.48832 -3.03193,19.05924 -4.41565,28.60833 -9.65723,62.14863 -20.0651,124.20779 -29.16225,186.45475 -1.28006,8.08801 -2.16798,16.25531 -2.16211,24.45261 -0.13079,20.77055 4.02679,41.77956 13.55204,60.332 5.60296,10.94496 13.15717,20.88928 22.26023,29.16043 13.83687,12.66713 30.83326,21.67109 48.83487,26.79994 22.11957,6.3813 45.44151,7.57212 68.30723,5.84197 10.8445,-0.82768 21.6911,-2.15274 32.2512,-4.82213 39.8485,-9.87078 75.8559,-34.96805 98.3556,-69.37569 7.4902,-11.53562 13.5346,-23.99641 18.1425,-36.95017 6.6283,-18.94008 9.8652,-38.83314 12.7022,-58.63229 1.5898,-10.8646 3.0614,-21.71274 4.9563,-32.51404 2.2322,-13.11245 4.1932,-26.25728 6.2973,-39.39322 1.828,-11.58901 3.6548,-23.17822 5.4837,-34.76709 -62.4043,0 -124.8086,0 -187.2129,0 -4.6512,29.25268 -9.30138,58.50553 -13.9551,87.75781 31.2467,0 62.4935,0 93.7402,0 -1.388,9.53699 -2.6067,19.10118 -4.2148,28.60547 -1.0397,6.03665 -2.2564,12.21745 -3.7907,18.2171 -1.9232,7.42896 -4.2414,15.01724 -8.1144,21.76941 -8.8406,15.59489 -24.064,27.62812 -41.5323,31.94045 -6.1334,1.50348 -12.5173,1.97414 -18.745,2.31321 -10.31182,0.36016 -20.90027,-0.58761 -30.48315,-4.65264 -7.74887,-3.2704 -14.54782,-9.13 -18.22147,-16.7719 -3.83746,-7.79814 -4.75811,-16.65969 -4.57478,-25.24632 0.0358,-1.67938 0.10779,-3.2335 0.23262,-4.94482 0.85148,-11.96716 3.50636,-23.69748 5.22476,-35.54922 6.11255,-38.5855 12.10594,-77.21058 18.18172,-115.7884 3.96848,-24.98418 7.95912,-49.94082 12.20831,-74.87513 2.36086,-13.03825 8.21716,-25.4623 16.90709,-35.47892 4.7542,-5.48846 10.4419,-10.18752 16.8264,-13.66133 0.9224,-0.49826 2.2386,-1.16744 3.1836,-1.59571 6.6515,-2.99148 13.7734,-4.8111 20.9361,-6.08204 6.0454,-1.02848 12.1943,-1.45394 18.3237,-1.25585 2.1594,0.0844 4.5059,0.27944 6.724,0.54205 7.3796,0.88052 14.7433,2.69746 21.3569,6.15812 7.4373,4.18083 12.7437,11.47001 15.6345,19.39219 0.5391,1.44424 1.0436,3.11891 1.394,4.48186 0.3406,1.35967 0.5989,2.54193 0.8358,3.94408 0.5458,3.19585 0.752,6.447 0.6505,9.68678 -0.06,1.69572 -0.1138,3.58599 -0.1486,5.35945 -0.2806,2.96929 -0.9927,5.88175 -1.2652,8.85422 -0.4887,4.45385 -0.1197,9.09647 1.8018,13.19579 1.1306,2.5045 2.5644,4.94906 4.5827,6.84054 2.8874,2.5196 6.8921,3.40486 10.6414,3.0293 24.2322,0 48.4643,0 72.6965,0 3.3847,-16.22277 5.6766,-32.7833 5.1315,-49.38933 -0.5639,-19.32904 -4.7078,-38.7619 -13.6587,-55.9968 -6.4447,-12.46229 -15.5626,-23.426865 -26.0661,-32.675997 -14.5412,-12.57255 -32.4128,-20.89194 -50.993,-25.490315 -15.0425,-3.750065 -30.5931,-5.192872 -46.0739,-5.053029 z m -377.63669,6.166016 c -16.1974,0.203479 -32.3986,0.528506 -48.59609,0.166016 -34.08451,0 -68.16901,0 -102.25352,0 -26.35843,165.667859 -52.77864,331.325879 -79.18359,496.986329 31.15104,0 62.30208,0 93.45312,0 10.1331,-63.1805 20.2684,-126.36065 30.40235,-189.54102 33.58988,-0.12286 67.22542,1.05233 100.77324,-1.14467 40.56932,-3.84451 79.79031,-22.0839 108.2818,-51.31623 22.53036,-23.23089 38.18488,-52.8655 45.44092,-84.35512 5.66332,-24.50612 6.47876,-50.19623 1.81143,-74.93697 -4.6713,-22.85937 -16.88064,-43.94178 -33.73318,-59.991148 -15.28555,-14.634934 -34.5035,-25.128523 -55.10533,-29.987453 -18.9277,-4.868026 -38.57964,-5.952416 -58.04974,-5.886803 -1.08047,-0.0019 -2.16094,0.0052 -3.24141,0.0071 z m -371.85938,0.136719 c -53.03579,0.04167 -106.07161,0.02932 -159.10742,0.0293 -26.34439,165.669889 -52.77636,331.325829 -79.179685,496.986329 31.162105,0 62.324215,0 93.486325,0 10.33082,-65.25636 20.6685,-130.51164 31.00196,-195.76758 15.15429,0 30.30859,0 45.46289,0 20.06039,65.25591 40.12203,130.51143 60.18164,195.76758 34.2832,0 68.5664,0 102.84961,0 -22.90965,-69.35456 -45.81335,-138.71109 -68.72071,-208.06641 41.83589,-16.46426 76.84507,-49.79122 94.87385,-91.02889 6.76824,-15.47403 10.74544,-32.04054 13.05716,-48.73153 2.74811,-20.68264 1.9763,-42.00103 -3.7064,-62.14387 -5.23178,-18.34708 -14.88156,-35.53755 -28.45507,-49.01172 -13.99985,-14.042863 -31.63072,-24.200986 -50.4375,-30.304691 -16.51381,-5.420866 -33.94463,-7.872585 -51.30665,-7.728515 z m 379.22461,87.121096 c 1.33776,0.0217 2.68928,0.0317 3.93172,0.11219 1.49409,0.083 2.95002,0.21512 4.49509,0.4045 4.85973,0.61371 9.6599,1.77013 14.22749,3.54776 0.93929,0.37902 2.11894,0.85559 3.12723,1.33506 4.78709,2.21733 9.26659,5.18446 12.94308,8.98721 0.48588,0.49697 1.15056,1.23015 1.66837,1.85762 5.07319,5.98015 7.79193,13.58283 9.16855,21.21373 0.835,4.7839 1.06894,9.81386 0.85644,14.56341 -0.10758,2.44841 -0.34033,5.06973 -0.63672,7.38867 -0.58872,4.52534 -1.50319,9.0047 -2.66797,13.41602 -0.45297,1.69862 -0.98703,3.59492 -1.54212,5.3491 -0.82455,2.61812 -1.64384,5.10047 -2.65514,7.63918 -0.49054,1.24303 -1.10599,2.69148 -1.70809,3.98713 -6.5081,14.04365 -17.63207,25.79343 -30.99229,33.53466 -9.69575,5.61121 -20.65823,9.17241 -31.87994,9.71567 -7.0867,0.3151 -14.1832,0.13856 -21.27435,0.22315 -19.07181,0.0704 -38.14377,0.0296 -57.21564,0.0257 7.14518,-44.41927 14.29036,-88.83854 21.43554,-133.25781 26.2396,-0.002 52.47919,0.007 78.71875,-0.043 z m -386.09961,0.01 c 10.16915,0.0343 20.55638,2.37483 29.12603,8.01858 5.66034,3.68831 10.27964,8.95178 13.1219,15.08724 1.00684,2.11136 1.82767,4.30787 2.50989,6.54457 0.0859,0.33837 0.33787,1.15949 0.43069,1.53456 0.80816,3.05364 1.32589,6.18188 1.59079,9.32872 0.0422,0.50903 0.10415,1.37708 0.13515,2.0216 0.57263,12.33092 -2.08004,24.59716 -6.10923,36.19193 -1.45228,4.23509 -3.25568,8.50252 -5.51029,12.45444 -0.4526,0.80159 -1.06258,1.82917 -1.61726,2.69677 -0.79361,1.25886 -1.69042,2.57327 -2.51081,3.67055 -0.91393,1.25508 -1.96727,2.5881 -3.01256,3.83971 -0.34496,0.40543 -0.9141,1.07597 -1.36225,1.56943 -11.14857,12.52714 -26.71509,21.27032 -43.40695,23.45816 -1.62475,0.21669 -3.55853,0.3725 -5.1683,0.44312 -7.7115,0.18864 -15.42627,0.0301 -23.13906,0.10637 -16.00703,0.006 -32.01406,0.0111 -48.02109,0.0167 6.74934,-42.31641 13.49869,-84.63282 20.24804,-126.94922 24.23179,0.004 48.46354,-0.008 72.69531,-0.0332 z" />
    <path
       id="text8346"
       style="font-style:normal;font-weight:normal;font-size:53.3333px;line-height:1.25;font-family:sans-serif;letter-spacing:0px;word-spacing:0px;white-space:pre;shape-inside:url(#rect8348);fill:#bc1d75;fill-opacity:1;stroke:none;stroke-width:11.8597"
       d="m 1068.9297,65.908203 c -9.8407,0.196391 -19.6995,0.764002 -29.4132,2.423589 -27.0509,4.404681 -53.20747,15.146243 -74.93969,31.942978 -11.11947,8.58428 -20.94274,18.82334 -29.13841,30.22883 -12.48589,16.81052 -20.7279,36.43419 -26.04878,56.59668 -3.88219,14.48157 -6.22481,29.31829 -8.16011,44.16801 -10.09989,65.29348 -21.12286,130.45957 -30.57391,195.85915 -1.72532,12.60848 -1.6469,25.46218 0.15713,38.0567 2.46344,16.94668 8.31944,33.57908 18.23231,47.63097 4.89673,6.99638 10.79621,13.26833 17.39237,18.6853 13.85763,11.58804 30.69855,19.28315 48.21884,23.4117 22.79967,5.46445 46.56175,5.49942 69.75265,2.86891 9.0713,-1.02532 18.068,-2.76248 26.8193,-5.37471 37.1327,-10.94471 70.1822,-35.82269 90.137,-69.09449 4.6784,-7.91527 8.7388,-16.19853 12.15,-24.73599 7.222,-18.44096 10.791,-38.04037 13.6507,-57.5602 1.9775,-13.30839 3.6749,-26.64636 6.0963,-39.88997 1.5594,-9.16235 2.9129,-18.35868 4.3898,-27.5348 1.8534,-11.7634 3.7089,-23.52646 5.5609,-35.29008 -57.0085,0 -114.0169,0 -171.0254,0 -3.8024,23.91933 -7.6032,47.8389 -11.4082,71.75781 31.2227,0 62.4453,0 93.668,0 -2.9525,18.25871 -4.6475,36.68489 -9.0115,54.68351 -0.934,3.85182 -2.0108,7.71376 -3.2237,11.41443 -1.9296,6.07421 -4.5237,11.95 -7.9452,17.33601 -3.982,6.33827 -8.9229,12.06718 -14.5716,16.97621 -0.8904,0.78061 -1.9968,1.69254 -3.0049,2.48303 -2.8691,2.25743 -6.0531,4.38393 -9.1318,6.13611 -8.3668,4.78373 -17.7046,7.88509 -27.2978,8.89154 -12.2693,1.50466 -24.90453,1.59061 -36.93597,-1.55072 -1.18351,-0.30823 -2.56578,-0.72802 -3.59436,-1.06933 -8.84553,-2.87084 -17.07812,-8.10939 -22.70705,-15.59552 -0.52182,-0.69232 -1.13512,-1.57431 -1.54295,-2.18769 -5.23024,-7.88587 -7.49349,-17.38793 -7.91832,-26.75076 -0.20871,-3.76612 -0.14213,-7.7983 0.11829,-11.66755 0.11682,-1.72821 0.26953,-3.45341 0.43675,-5.17739 0.0521,-0.48373 0.1501,-1.32536 0.21979,-1.94621 1.08032,-9.02832 2.92914,-17.9399 4.26704,-26.93006 9.69101,-60.7002 18.79568,-121.47706 28.90755,-182.10394 0.80784,-4.70045 1.54112,-9.41625 2.43783,-14.09991 3.85158,-17.33548 13.1254,-33.64923 26.8931,-45.00064 6.334,-5.24101 13.6834,-9.22402 21.5106,-11.73127 11.5834,-3.77059 23.8256,-5.6482 36.0121,-5.14305 0.4355,0.0292 1.3059,0.067 1.7425,0.0964 2.2942,0.14542 4.8013,0.40398 6.9431,0.70244 7.3936,1.05731 14.7216,3.00769 21.4323,6.33044 8.6138,4.52377 15.2072,12.35504 19.0406,21.22203 0.4606,1.03748 0.8133,1.92794 1.2213,3.02008 1.4644,3.97821 2.4474,8.13045 2.9601,12.33761 0.1696,1.37334 0.3055,2.98515 0.3672,4.4592 0.059,1.35439 0.073,2.98971 0.017,4.45335 -0.1172,1.77008 -0.1412,3.54073 -0.1043,5.31347 -0.4747,5.00499 -2.1443,9.99822 -1.2613,15.05966 0.4123,2.45629 1.6189,4.69752 2.966,6.75471 1.0745,1.37833 2.9128,1.96611 4.6099,1.71156 22.5016,0 45.0031,0 67.5047,0 2.7858,-14.30069 4.3402,-28.90385 3.6436,-43.48215 -0.7714,-17.09923 -4.5148,-34.2349 -12.3245,-49.54408 -4.0182,-7.91718 -9.1734,-15.23922 -15.1982,-21.75677 -4.8522,-5.423689 -10.2344,-10.382735 -16.1676,-14.605711 -13.1254,-9.460303 -28.3987,-15.651958 -44.1356,-19.175984 -13.9868,-3.153077 -28.3744,-4.287705 -42.6927,-4.013432 z m -374.62697,6.125 c -15.89892,0.1328 -31.80116,0.632148 -47.69921,0.179688 -32.50847,0 -65.01693,0 -97.5254,0 -15.26561,96.135839 -30.6286,192.256169 -45.93822,288.385009 -10.23291,64.20042 -20.46518,128.40095 -30.69849,192.60132 25.7526,0 51.5052,0 77.25781,0 10.1324,-63.17139 20.2671,-126.34242 30.40039,-189.51367 35.37171,-0.3069 70.78677,1.13626 106.12097,-1.0639 38.57791,-3.4997 75.94433,-20.60349 103.23661,-48.18829 12.90074,-13.09648 23.47777,-28.43377 31.439,-44.98955 15.62283,-32.63014 20.99804,-70.11889 14.9282,-105.79941 -3.80509,-20.90382 -14.41344,-40.35188 -29.30164,-55.43365 -14.11314,-14.37505 -32.13621,-24.942482 -51.68394,-29.901042 -12.71279,-3.471395 -25.84442,-5.206644 -38.99088,-5.849171 -7.17521,-0.367602 -14.36134,-0.452103 -21.5452,-0.427334 z m -373.05468,0.150391 c -46.28551,0.06398 -92.5711,0.01404 -138.85664,0.0293 -4.47683,0 -8.95365,0 -13.43047,0 -12.37372,78.065059 -24.86655,156.111219 -37.29286,234.167949 -13.1134,82.27278 -26.22616,164.54566 -39.339955,246.81838 25.758465,0 51.516925,0 77.275395,0 10.33329,-65.25638 20.67372,-130.51163 31.00976,-195.76758 19.40169,0 38.80339,0 58.20508,0 20.06039,65.25591 40.12203,130.51143 60.18164,195.76758 28.62174,0 57.24349,0 85.86523,0 -22.55955,-68.30112 -45.11279,-136.60433 -67.66992,-204.90625 42.3672,-14.39393 78.31732,-46.78878 96.76034,-87.58861 5.19516,-11.43667 8.81593,-23.54914 11.15381,-35.88005 4.3044,-21.04575 5.03749,-43.01811 0.47669,-64.08701 -3.73923,-17.20837 -11.38811,-33.69278 -22.91143,-47.07969 C 410.83831,99.787047 395.31523,89.294635 378.42628,82.561461 360.32587,75.273623 340.72385,72.000028 321.24805,72.183594 Z m 379.29297,71.121096 c 4.55977,0.008 9.1223,0.39469 13.60546,1.23633 0.50999,0.0954 1.05532,0.20008 1.58694,0.31786 7.89163,1.66337 15.53804,4.71939 22.18455,9.31885 1.68283,1.16645 3.45844,2.54412 5.01492,3.98919 5.28203,4.80163 9.33171,10.91075 11.79284,17.60569 2.57108,6.65549 3.87539,13.76105 4.17466,20.87778 0.0164,0.48408 0.0448,1.32463 0.0593,1.9457 0.18874,11.48947 -2.01368,22.90608 -5.45382,33.83164 -0.36973,1.17426 -0.83111,2.56562 -1.25781,3.81446 -0.17664,0.47607 -0.46438,1.28925 -0.6836,1.89453 -8.1211,22.50976 -26.70529,40.7251 -48.98453,49.21528 -1.6896,0.64088 -3.39785,1.23111 -5.12484,1.76323 -0.5791,0.17274 -1.47119,0.44824 -2.18091,0.63446 -6.68342,1.90033 -13.63524,2.69965 -20.57182,2.75598 -15.59485,0.0861 -31.19025,0.14909 -46.78555,0.11906 -12.33229,-0.0137 -24.66458,-0.0382 -36.99688,-0.0232 8.00326,-49.7513 16.00651,-99.5026 24.00977,-149.2539 28.5371,-0.003 57.07432,0.0267 85.61133,-0.043 z m -386.05469,0.01 c 1.34242,0.008 2.63228,0.0417 3.89719,0.11433 3.97927,0.20896 7.93751,0.79077 11.8157,1.70403 0.45665,0.12106 1.26495,0.30691 1.85425,0.47819 9.98364,2.67803 19.42981,8.06722 26.00168,16.14966 4.33388,5.31084 7.30771,11.648 9.12063,18.23543 0.27679,1.02591 0.59273,2.31146 0.82736,3.45223 0.4353,2.05517 0.76514,4.21162 0.97647,6.20189 0.20591,1.86645 0.31034,3.62061 0.36811,5.53096 0.24689,10.15952 -1.4421,20.2906 -4.23639,30.03563 -0.24075,0.77995 -0.53676,1.84178 -0.82293,2.7285 -2.20529,7.05861 -4.83571,14.04995 -8.75819,20.35315 -5.80829,9.52256 -13.68903,17.74606 -22.84662,24.09999 -0.3971,0.25882 -1.06743,0.73051 -1.58392,1.06569 -10.22601,6.74497 -22.02984,11.17065 -34.23444,12.43626 -0.38997,0.0281 -1.08772,0.10764 -1.51421,0.13211 -5.96871,0.42283 -11.95626,0.13278 -17.93344,0.24133 -21.79021,0.042 -43.58047,0.0221 -65.3707,0.0231 7.60091,-47.64974 15.20182,-95.29948 22.80273,-142.94922 26.54558,8.8e-4 53.09117,0.0178 79.63672,-0.0332 z" />
    <text
       xml:space="preserve"
       id="text5683"
       style="font-style:normal;font-weight:normal;font-size:53.3333px;line-height:1.25;font-family:sans-serif;letter-spacing:0px;word-spacing:0px;white-space:pre;shape-inside:url(#rect5685);fill:#e867cd;fill-opacity:1;stroke:none"
       x="43.652344"
       y="0"
       transform="matrix(11.878493,0,0,11.840871,-33.274611,-54.406873)"><tspan
         x="9"
         y="50.470556"
         id="tspan8811"><tspan
           style="font-style:italic;font-family:'JetBrains Mono';-inkscape-font-specification:'JetBrains Mono Italic'"
           id="tspan8809">RPG</tspan></tspan></text>
  </g>
</svg>
